# xmcd
#
# Track frame offsets:
#  150
#  15659
#  32050
#  48612
#  61103
#  74966
#  90045
#  104789
#  122744
#  138669
#  154892
#  170827
#  186905
#  206123
#  228931
#
# Disc length: 3252 seconds
#
# Revision: 1
# Processed by: cddbd v1.5.1PL2 Copyright (c) Steve Scherf et al.
# Submitted via: Collectorz.com_Music_Collector 6.9
#
DISCID=de0cb20f
DTITLE=Toby Keith - Greatest Hits 2
DYEAR=2004
DGENRE=Country
TTITLE0=How Do You Like Me Now?!
TTITLE1=Country Comes To Town
TTITLE2=You Shouldn't Kiss Me Like This
TTITLE3=I'm Just Talkin' About Tonight
TTITLE4=I Wanna Talk About Me
TTITLE5=My List
TTITLE6=Courtesy Of The Red, White And Blue (The Angry American)
TTITLE7=Who's Your Daddy?
TTITLE8=Beer For My Horses (Duet With Willie Nelson)
TTITLE9=Stays In Mexico
TTITLE10=Mockingbird (Duet With Krystal)
TTITLE11=Go With Her
TTITLE12=You Ain't Much Fun (Live)
TTITLE13=Should've Been A Cowboy (Live0
TTITLE14=I Can't Take You Anywhere
EXTD=
EXTT0=
EXTT1=
EXTT2=
EXTT3=
EXTT4=
EXTT5=
EXTT6=
EXTT7=
EXTT8=
EXTT9=
EXTT10=
EXTT11=
EXTT12=
EXTT13=
EXTT14=
PLAYORDER=
